
<svg xmlns="http://www.w3.org/2000/svg" xmlns:xlink="http://www.w3.org/1999/xlink" version="1.1"  width="1329" height="969">
<defs id="dmw_defs" >
<svg id="fk_sym" viewBox="0 0 48.665 48.665" style="enable-background:new 0 0 48.665 48.665;" >
<g>
<path d="M40.332,31.592c-2.377,0-4.515,1-6.033,2.598l-17.737-8.686c0.061-0.406,0.103-0.82,0.103-1.246    c0-0.414-0.04-0.818-0.098-1.215l17.711-8.589c1.519,1.609,3.666,2.619,6.054,2.619c4.603,0,8.333-3.731,8.333-8.333    c0-4.603-3.73-8.333-8.333-8.333s-8.333,3.73-8.333,8.333c0,0.414,0.04,0.817,0.098,1.215l-17.709,8.589    c-1.519-1.609-3.666-2.619-6.054-2.619C3.73,15.925,0,19.656,0,24.258c0,4.603,3.73,8.333,8.333,8.333    c2.377,0,4.515-1,6.033-2.596l17.736,8.685c-0.062,0.406-0.104,0.82-0.104,1.245c0,4.604,3.73,8.333,8.333,8.333    s8.333-3.729,8.333-8.333C48.665,35.322,44.935,31.592,40.332,31.592z" fill="#13bf3b"/>
</g>
</svg>
<svg id="pk_sym" viewBox="0 0 480.509 480.509" style="enable-background:new 0 0 480.509 480.509;" >
<g>
<path d="M418.119,331.046c4.094,4.374,7.766,8.186,10.996,11.416c3.237,3.238,6.714,6.376,10.427,9.422   c3.71,3.042,6.427,4.568,8.135,4.568c3.241,0,9.517-4.661,18.843-13.99c9.328-9.321,13.989-15.604,13.989-18.842   c0-1.523-2.714-5.421-8.138-11.704c-5.421-6.276-12.364-13.702-20.838-22.271c-8.473-8.565-16.703-16.744-24.694-24.55   c-8.001-7.81-15.8-15.373-23.417-22.703c-7.611-7.327-11.992-11.56-13.135-12.703c-1.902-1.902-4.093-2.853-6.563-2.853   c-3.237,0-9.521,4.661-18.843,13.988c-9.328,9.322-13.989,15.605-13.989,18.843c0,1.711,1.522,4.421,4.568,8.138   c3.046,3.71,6.188,7.187,9.421,10.424c3.23,3.23,7.047,6.899,11.42,10.992c4.377,4.093,6.848,6.423,7.423,6.995l-27.408,27.404   L254.954,222.268c24.94-33.498,37.408-68.236,37.408-104.211c0-31.024-9.761-56.293-29.263-75.801   c-19.512-19.511-44.778-29.265-75.805-29.265c-30.454,0-60.244,9.042-89.363,27.119c-29.121,18.083-52.727,41.686-70.808,70.808   C9.042,140.038,0,169.828,0,200.28c0,31.029,9.753,56.286,29.265,75.803c19.511,19.517,44.777,29.27,75.801,29.27   c35.976,0,70.71-12.467,104.212-37.407l191.574,191.579c5.332,5.328,11.796,7.994,19.417,7.994c7.991,0,15.704-3.72,23.12-11.14   c7.426-7.426,11.143-15.129,11.143-23.127c0-7.617-2.666-14.092-7.994-19.417l-62.811-62.811l27.405-27.404   C411.699,324.195,414.033,326.666,418.119,331.046z M221.556,161.458c-10.656,10.657-23.601,15.987-38.828,15.987   c-7.996,0-15.896-1.812-23.7-5.43c3.617,7.808,5.426,15.706,5.426,23.7c0,15.229-5.327,28.171-15.987,38.828   c-10.66,10.655-23.606,15.986-38.831,15.986c-15.227,0-28.168-5.325-38.828-15.986c-10.657-10.657-15.987-23.599-15.987-38.828   c0-15.227,5.327-28.171,15.987-38.828C81.464,146.23,94.409,140.9,109.636,140.9c7.992,0,15.893,1.809,23.695,5.424   c-3.616-7.804-5.424-15.706-5.424-23.699c0-15.227,5.327-28.171,15.987-38.828c10.66-10.657,23.604-15.987,38.831-15.987   c15.227,0,28.171,5.327,38.828,15.987c10.657,10.66,15.987,23.601,15.987,38.828C237.539,137.852,232.209,150.797,221.556,161.458z   " fill="#ff8345"/>
</g>
</svg>
<svg id="uk_sym" viewBox="0 0 490 490" style="enable-background:new 0 0 490 490;" >
<g>
	<polygon points="236.99,11.41 0,246.348 236.99,478.678 236.99,350.609 129.864,245 236.99,139.391  " fill="#0064fb"/>
<polygon points="253.01,478.59 490,243.651 253.01,11.322 253.01,139.391 360.136,245 253.01,350.609  " fill="#0064fb"/>
</g>
</svg>
<svg id="link_sym" viewBox="0 0 1000 900" style="enable-background:new 0 0 1000 900;" >
<g>
<path fill="black" d="M660.224 422.656c6.976 16.192-0.512 35.008-16.768 42.048-16.128 6.976-34.944-0.448-41.984-16.768-8.448-19.776-20.736-37.696-36.224-53.248-64.64-64.64-177.344-64.64-241.92 0l-145.216 145.28c-66.688 66.688-66.688 175.232 0 241.984 66.688 66.688 175.104 66.752 241.92 0l92.8-92.864c12.48-12.48 32.768-12.48 45.248 0s12.48 32.768 0 45.248l-92.8 92.864c-91.648 91.648-240.832 91.52-332.416 0-91.712-91.648-91.712-240.832 0-332.48l145.216-145.28c44.352-44.416 103.424-68.864 166.272-68.864s121.792 24.448 166.208 68.864c21.248 21.312 38.016 45.952 49.664 73.216zM891.136 401.344l-145.216 145.216c-88.768 88.832-243.712 88.832-332.416 0-21.312-21.312-38.080-45.952-49.728-73.216-7.040-16.256 0.448-35.072 16.704-42.048 16.064-6.784 35.008 0.512 41.984 16.768 8.512 19.776 20.8 37.696 36.288 53.248 64.64 64.64 177.344 64.64 241.92 0l145.216-145.216c66.688-66.688 66.688-175.232 0-241.984-66.752-66.624-175.168-66.688-241.92 0l-92.8 92.864c-12.48 12.48-32.768 12.48-45.248 0s-12.48-32.768 0-45.248l92.8-92.864c45.824-45.824 105.984-68.736 166.208-68.736s120.448 22.912 166.272 68.736c91.584 91.648 91.584 240.768-0.064 332.48z" />
</g>
</svg>
<clipPath clipPathUnits="userSpaceOnUse" id="clipPath2_0_">
<rect x="0" y="0" width="362" height="199" />
</clipPath>
<clipPath clipPathUnits="userSpaceOnUse" id="clipPath7_0_">
<rect x="0" y="0" width="313" height="232" />
</clipPath>
<clipPath clipPathUnits="userSpaceOnUse" id="clipPath15_0_">
<rect x="0" y="0" width="121" height="41" />
</clipPath>
<clipPath clipPathUnits="userSpaceOnUse" id="clipPath16_0_">
<rect x="0" y="0" width="111" height="41" />
</clipPath>
<clipPath clipPathUnits="userSpaceOnUse" id="clipPath3_0_">
<rect x="0" y="0" width="346" height="199" />
</clipPath>
<clipPath clipPathUnits="userSpaceOnUse" id="clipPath14_0_">
<rect x="0" y="0" width="121" height="40" />
</clipPath>
<clipPath clipPathUnits="userSpaceOnUse" id="clipPath4_0_">
<rect x="0" y="0" width="351" height="199" />
</clipPath>
<clipPath clipPathUnits="userSpaceOnUse" id="clipPath5_0_">
<rect x="0" y="0" width="277" height="232" />
</clipPath>
<clipPath clipPathUnits="userSpaceOnUse" id="clipPath6_0_">
<rect x="0" y="0" width="299" height="232" />
</clipPath>
</defs>
<g stroke-linecap="butt" >
<path stroke="rgb(0,0,0)" fill="none" stroke-opacity="1.0"  stroke-width="1" d="M817 626 L1015 770" />
<polygon stroke="rgb(0,0,0)" stroke-dasharray="none" points="817 626 822 627 820 631" fill="rgb(0,0,0)" stroke-width="1" stroke-opacity="1.0"  />
<path stroke-dasharray="none" d=" M1012.0 774.0 L1007.0 764.0 L1018.0 766.0 M1003.0 765.1666666666666 L1003.0 756.8333333333334 M999.0 762.1666666666666 L1007.0 759.8333333333334" fill="white" stroke-width="1" stroke-opacity="1.0" stroke="rgb(0,0,0)" />
</g>
<g stroke-linecap="butt" >
<path stroke="rgb(0,0,0)" fill="none" stroke-opacity="1.0"  stroke-width="1" d="M708 642 L708 770" />
<polygon stroke="rgb(0,0,0)" stroke-dasharray="none" points="708 642 711 648 705 648" fill="rgb(0,0,0)" stroke-width="1" stroke-opacity="1.0"  />
<path stroke-dasharray="none" d=" M702.0 770.0 L708.0 758.0 L714.0 770.0 M704.0 755.0 L712.0 749.0 M704.0 749.0 L712.0 755.0" fill="white" stroke-width="1" stroke-opacity="1.0" stroke="rgb(0,0,0)" />
</g>
<g stroke-linecap="butt" >
<path stroke="rgb(0,0,0)" fill="none" stroke-opacity="1.0"  stroke-width="1" d="M820 216 L622 216" />
<polygon stroke="rgb(0,0,0)" stroke-dasharray="none" points="820 216 814 219 814 213" fill="rgb(0,0,0)" stroke-width="1" stroke-opacity="1.0"  />
<path stroke-dasharray="none" d=" M622.0 210.0 L634.0 216.0 L622.0 222.0 M637.0 212.0 L643.0 220.0 M643.0 212.0 L637.0 220.0" fill="white" stroke-width="1" stroke-opacity="1.0" stroke="rgb(0,0,0)" />
</g>
<g stroke-linecap="butt" >
<path stroke="rgb(0,0,0)" fill="none" stroke-opacity="1.0"  stroke-width="1" d="M1043 642 L892 770" />
<polygon stroke="rgb(0,0,0)" stroke-dasharray="none" points="1043 642 1040 647 1038 643" fill="rgb(0,0,0)" stroke-width="1" stroke-opacity="1.0"  />
<path stroke-dasharray="none" d=" M889.0 766.0 L900.0 764.0 L895.0 774.0 M900.0 759.8333333333334 L908.0 762.1666666666666 M904.0 756.8333333333334 L904.0 765.1666666666666" fill="white" stroke-width="1" stroke-opacity="1.0" stroke="rgb(0,0,0)" />
</g>
<g stroke-linecap="butt" >
<path stroke="rgb(0,0,0)" fill="none" stroke-opacity="1.0"  stroke-width="1" d="M581 410 L581 329" />
<polygon stroke="rgb(0,0,0)" stroke-dasharray="none" points="581 410 578 404 584 404" fill="rgb(0,0,0)" stroke-width="1" stroke-opacity="1.0"  />
<path stroke-dasharray="none" d=" M587.0 329.0 L581.0 341.0 L575.0 329.0 M585.0 344.0 L577.0 350.0 M585.0 350.0 L577.0 344.0" fill="white" stroke-width="1" stroke-opacity="1.0" stroke="rgb(0,0,0)" />
</g>
<g stroke-linecap="butt" >
<path stroke="rgb(0,0,0)" fill="none" stroke-opacity="1.0"  stroke-width="1" d="M1178 642 L1178 770" />
<polygon stroke="rgb(0,0,0)" stroke-dasharray="none" points="1178 642 1181 648 1175 648" fill="rgb(0,0,0)" stroke-width="1" stroke-opacity="1.0"  />
<path stroke-dasharray="none" d=" M1172.0 770.0 L1178.0 758.0 L1184.0 770.0 M1174.0 755.0 L1182.0 749.0 M1174.0 749.0 L1182.0 755.0" fill="white" stroke-width="1" stroke-opacity="1.0" stroke="rgb(0,0,0)" />
</g>
<g  fill="rgb(255,255,180)" stroke="rgb(0,0,255)" fill-opacity="1.0" stroke-opacity="1.0" clip-path="url(#clipPath5_0_)" transform="translate(540,410)" >
<rect x="0" y="0" width="276" height="231" />
<text id="EC02AC5E-21AD188049BF" x="96" y="13" fill="rgb(0,0,255)" font-weight="bold"  fill-opacity="1.0" font-size="10" stroke="none">
public.node_age
</text>
<line x1="0" y1="17" x2="275" y2="17" fill="none" stroke="rgb(0,0,255)"/>
<text x="16" y="30" fill="rgb(255,0,0)" fill-opacity="1.0" font-size="10" stroke="none">
*
</text>
<text x="26" y="30" fill="rgb(0,0,0)" fill-opacity="1.0" font-size="10" stroke="none">
created
</text>
<text x="83" y="30" fill="rgb(0,128,0)" fill-opacity="1.0" font-size="10" stroke="none">
TIMESTAMP WITH TIME ZONE
</text>
<text x="16" y="43" fill="rgb(255,0,0)" fill-opacity="1.0" font-size="10" stroke="none">

</text>
<text x="26" y="43" fill="rgb(0,0,0)" fill-opacity="1.0" font-size="10" stroke="none">
acl
</text>
<text x="83" y="43" fill="rgb(0,128,0)" fill-opacity="1.0" font-size="10" stroke="none">
UNKNOWN
</text>
<text x="16" y="56" fill="rgb(255,0,0)" fill-opacity="1.0" font-size="10" stroke="none">

</text>
<text x="26" y="56" fill="rgb(0,0,0)" fill-opacity="1.0" font-size="10" stroke="none">
_sysan
</text>
<text x="83" y="56" fill="rgb(0,128,0)" fill-opacity="1.0" font-size="10" stroke="none">
UNKNOWN
</text>
<text x="16" y="69" fill="rgb(255,0,0)" fill-opacity="1.0" font-size="10" stroke="none">

</text>
<text x="26" y="69" fill="rgb(0,0,0)" fill-opacity="1.0" font-size="10" stroke="none">
_props
</text>
<text x="83" y="69" fill="rgb(0,128,0)" fill-opacity="1.0" font-size="10" stroke="none">
UNKNOWN
</text>
<text x="16" y="82" fill="rgb(255,0,0)" fill-opacity="1.0" font-size="10" stroke="none">
*
</text>
<text x="2" y="82" fill="rgb(0,0,255)" fill-opacity="1.0" font-size="10" stroke="none">
P
</text>
<text x="26" y="82" fill="rgb(0,0,0)" fill-opacity="1.0" font-size="10" stroke="none">
node_id
</text>
<text x="83" y="82" fill="rgb(0,128,0)" fill-opacity="1.0" font-size="10" stroke="none">
VARCHAR2 (2147483647)
</text>
<line x1="0" y1="88" x2="275" y2="88" fill="none" stroke="rgb(0,0,255)"/>
<use xlink:href="#pk_sym" x="4" y="95" width="8" height="8" fill-opacity="1.0"/>
<text x="16" y="101" fill="rgb(0,0,0)" fill-opacity="1.0" font-size="10" stroke="none">
_age_id_uc (node_id)
</text>
<use xlink:href="#uk_sym" x="4" y="108" width="8" height="8" fill-opacity="1.0"/>
<text x="16" y="114" fill="rgb(0,0,0)" fill-opacity="1.0" font-size="10" stroke="none">
index_1f2964e3_age_project_id_submitte_id_un ()
</text>
<line x1="0" y1="120" x2="275" y2="120" fill="none" stroke="rgb(0,0,255)"/>
<text x="16" y="133" fill="rgb(0,0,0)" fill-opacity="1.0" font-size="10" stroke="none">
index_node_age_project_id ()
</text>
<text x="16" y="146" fill="rgb(0,0,0)" fill-opacity="1.0" font-size="10" stroke="none">
index_node_age_project_id_lower ()
</text>
<text x="16" y="159" fill="rgb(0,0,0)" fill-opacity="1.0" font-size="10" stroke="none">
index_node_age_submitter_id ()
</text>
<text x="16" y="172" fill="rgb(0,0,0)" fill-opacity="1.0" font-size="10" stroke="none">
index_node_age_submitter_id_lower ()
</text>
<text x="16" y="185" fill="rgb(0,0,0)" fill-opacity="1.0" font-size="10" stroke="none">
node_age__props_idx (_props)
</text>
<text x="16" y="198" fill="rgb(0,0,0)" fill-opacity="1.0" font-size="10" stroke="none">
node_age__sysan__props_idx (_sysan, _props)
</text>
<text x="16" y="211" fill="rgb(0,0,0)" fill-opacity="1.0" font-size="10" stroke="none">
node_age__sysan_idx (_sysan)
</text>
<text x="16" y="224" fill="rgb(0,0,0)" fill-opacity="1.0" font-size="10" stroke="none">
node_age_node_id_idx (node_id)
</text>
</g>
<g  fill="rgb(255,255,180)" stroke="rgb(0,0,255)" fill-opacity="1.0" stroke-opacity="1.0" clip-path="url(#clipPath6_0_)" transform="translate(1030,410)" >
<rect x="0" y="0" width="298" height="231" />
<text id="F0D23BD9-CD1495ACE15A" x="92" y="13" fill="rgb(0,0,255)" font-weight="bold"  fill-opacity="1.0" font-size="10" stroke="none">
public.node_agerange
</text>
<line x1="0" y1="17" x2="297" y2="17" fill="none" stroke="rgb(0,0,255)"/>
<text x="16" y="30" fill="rgb(255,0,0)" fill-opacity="1.0" font-size="10" stroke="none">
*
</text>
<text x="26" y="30" fill="rgb(0,0,0)" fill-opacity="1.0" font-size="10" stroke="none">
created
</text>
<text x="83" y="30" fill="rgb(0,128,0)" fill-opacity="1.0" font-size="10" stroke="none">
TIMESTAMP WITH TIME ZONE
</text>
<text x="16" y="43" fill="rgb(255,0,0)" fill-opacity="1.0" font-size="10" stroke="none">

</text>
<text x="26" y="43" fill="rgb(0,0,0)" fill-opacity="1.0" font-size="10" stroke="none">
acl
</text>
<text x="83" y="43" fill="rgb(0,128,0)" fill-opacity="1.0" font-size="10" stroke="none">
UNKNOWN
</text>
<text x="16" y="56" fill="rgb(255,0,0)" fill-opacity="1.0" font-size="10" stroke="none">

</text>
<text x="26" y="56" fill="rgb(0,0,0)" fill-opacity="1.0" font-size="10" stroke="none">
_sysan
</text>
<text x="83" y="56" fill="rgb(0,128,0)" fill-opacity="1.0" font-size="10" stroke="none">
UNKNOWN
</text>
<text x="16" y="69" fill="rgb(255,0,0)" fill-opacity="1.0" font-size="10" stroke="none">

</text>
<text x="26" y="69" fill="rgb(0,0,0)" fill-opacity="1.0" font-size="10" stroke="none">
_props
</text>
<text x="83" y="69" fill="rgb(0,128,0)" fill-opacity="1.0" font-size="10" stroke="none">
UNKNOWN
</text>
<text x="16" y="82" fill="rgb(255,0,0)" fill-opacity="1.0" font-size="10" stroke="none">
*
</text>
<text x="2" y="82" fill="rgb(0,0,255)" fill-opacity="1.0" font-size="10" stroke="none">
P
</text>
<text x="26" y="82" fill="rgb(0,0,0)" fill-opacity="1.0" font-size="10" stroke="none">
node_id
</text>
<text x="83" y="82" fill="rgb(0,128,0)" fill-opacity="1.0" font-size="10" stroke="none">
VARCHAR2 (2147483647)
</text>
<line x1="0" y1="88" x2="297" y2="88" fill="none" stroke="rgb(0,0,255)"/>
<use xlink:href="#pk_sym" x="4" y="95" width="8" height="8" fill-opacity="1.0"/>
<text x="16" y="101" fill="rgb(0,0,0)" fill-opacity="1.0" font-size="10" stroke="none">
_agerange_id_uc (node_id)
</text>
<use xlink:href="#uk_sym" x="4" y="108" width="8" height="8" fill-opacity="1.0"/>
<text x="16" y="114" fill="rgb(0,0,0)" fill-opacity="1.0" font-size="10" stroke="none">
index_e7f3b344_agerang_project_id_submitte_id_un ()
</text>
<line x1="0" y1="120" x2="297" y2="120" fill="none" stroke="rgb(0,0,255)"/>
<text x="16" y="133" fill="rgb(0,0,0)" fill-opacity="1.0" font-size="10" stroke="none">
index_node_agerange_project_id ()
</text>
<text x="16" y="146" fill="rgb(0,0,0)" fill-opacity="1.0" font-size="10" stroke="none">
index_node_agerange_project_id_lower ()
</text>
<text x="16" y="159" fill="rgb(0,0,0)" fill-opacity="1.0" font-size="10" stroke="none">
index_node_agerange_submitter_id ()
</text>
<text x="16" y="172" fill="rgb(0,0,0)" fill-opacity="1.0" font-size="10" stroke="none">
index_node_agerange_submitter_id_lower ()
</text>
<text x="16" y="185" fill="rgb(0,0,0)" fill-opacity="1.0" font-size="10" stroke="none">
node_agerange__props_idx (_props)
</text>
<text x="16" y="198" fill="rgb(0,0,0)" fill-opacity="1.0" font-size="10" stroke="none">
node_agerange__sysan__props_idx (_sysan, _props)
</text>
<text x="16" y="211" fill="rgb(0,0,0)" fill-opacity="1.0" font-size="10" stroke="none">
node_agerange__sysan_idx (_sysan)
</text>
<text x="16" y="224" fill="rgb(0,0,0)" fill-opacity="1.0" font-size="10" stroke="none">
node_agerange_node_id_idx (node_id)
</text>
</g>
<g  fill="rgb(255,255,180)" stroke="rgb(0,0,255)" fill-opacity="1.0" stroke-opacity="1.0" clip-path="url(#clipPath7_0_)" transform="translate(820,70)" >
<rect x="0" y="0" width="312" height="231" />
<text id="96115EBE-05C22978594C" x="83" y="13" fill="rgb(0,0,255)" font-weight="bold"  fill-opacity="1.0" font-size="10" stroke="none">
public.node_beaconcommon
</text>
<line x1="0" y1="17" x2="311" y2="17" fill="none" stroke="rgb(0,0,255)"/>
<text x="16" y="30" fill="rgb(255,0,0)" fill-opacity="1.0" font-size="10" stroke="none">
*
</text>
<text x="26" y="30" fill="rgb(0,0,0)" fill-opacity="1.0" font-size="10" stroke="none">
created
</text>
<text x="83" y="30" fill="rgb(0,128,0)" fill-opacity="1.0" font-size="10" stroke="none">
TIMESTAMP WITH TIME ZONE
</text>
<text x="16" y="43" fill="rgb(255,0,0)" fill-opacity="1.0" font-size="10" stroke="none">

</text>
<text x="26" y="43" fill="rgb(0,0,0)" fill-opacity="1.0" font-size="10" stroke="none">
acl
</text>
<text x="83" y="43" fill="rgb(0,128,0)" fill-opacity="1.0" font-size="10" stroke="none">
UNKNOWN
</text>
<text x="16" y="56" fill="rgb(255,0,0)" fill-opacity="1.0" font-size="10" stroke="none">

</text>
<text x="26" y="56" fill="rgb(0,0,0)" fill-opacity="1.0" font-size="10" stroke="none">
_sysan
</text>
<text x="83" y="56" fill="rgb(0,128,0)" fill-opacity="1.0" font-size="10" stroke="none">
UNKNOWN
</text>
<text x="16" y="69" fill="rgb(255,0,0)" fill-opacity="1.0" font-size="10" stroke="none">

</text>
<text x="26" y="69" fill="rgb(0,0,0)" fill-opacity="1.0" font-size="10" stroke="none">
_props
</text>
<text x="83" y="69" fill="rgb(0,128,0)" fill-opacity="1.0" font-size="10" stroke="none">
UNKNOWN
</text>
<text x="16" y="82" fill="rgb(255,0,0)" fill-opacity="1.0" font-size="10" stroke="none">
*
</text>
<text x="2" y="82" fill="rgb(0,0,255)" fill-opacity="1.0" font-size="10" stroke="none">
P
</text>
<text x="26" y="82" fill="rgb(0,0,0)" fill-opacity="1.0" font-size="10" stroke="none">
node_id
</text>
<text x="83" y="82" fill="rgb(0,128,0)" fill-opacity="1.0" font-size="10" stroke="none">
VARCHAR2 (2147483647)
</text>
<line x1="0" y1="88" x2="311" y2="88" fill="none" stroke="rgb(0,0,255)"/>
<use xlink:href="#pk_sym" x="4" y="95" width="8" height="8" fill-opacity="1.0"/>
<text x="16" y="101" fill="rgb(0,0,0)" fill-opacity="1.0" font-size="10" stroke="none">
_beaconcommon_id_uc (node_id)
</text>
<use xlink:href="#uk_sym" x="4" y="108" width="8" height="8" fill-opacity="1.0"/>
<text x="16" y="114" fill="rgb(0,0,0)" fill-opacity="1.0" font-size="10" stroke="none">
index_e1eb8710_beaccomm_project_id_submitte_id_un ()
</text>
<line x1="0" y1="120" x2="311" y2="120" fill="none" stroke="rgb(0,0,255)"/>
<text x="16" y="133" fill="rgb(0,0,0)" fill-opacity="1.0" font-size="10" stroke="none">
index_e1eb8710_beaccomm_submitte_id_lower ()
</text>
<text x="16" y="146" fill="rgb(0,0,0)" fill-opacity="1.0" font-size="10" stroke="none">
index_node_beaconcommon_project_id ()
</text>
<text x="16" y="159" fill="rgb(0,0,0)" fill-opacity="1.0" font-size="10" stroke="none">
index_node_beaconcommon_project_id_lower ()
</text>
<text x="16" y="172" fill="rgb(0,0,0)" fill-opacity="1.0" font-size="10" stroke="none">
index_node_beaconcommon_submitter_id ()
</text>
<text x="16" y="185" fill="rgb(0,0,0)" fill-opacity="1.0" font-size="10" stroke="none">
node_beaconcommon__props_idx (_props)
</text>
<text x="16" y="198" fill="rgb(0,0,0)" fill-opacity="1.0" font-size="10" stroke="none">
node_beaconcommon__sysan__props_idx (_sysan, _props)
</text>
<text x="16" y="211" fill="rgb(0,0,0)" fill-opacity="1.0" font-size="10" stroke="none">
node_beaconcommon__sysan_idx (_sysan)
</text>
<text x="16" y="224" fill="rgb(0,0,0)" fill-opacity="1.0" font-size="10" stroke="none">
node_beaconcommon_node_id_idx (node_id)
</text>
</g>
<g  fill="rgb(255,255,180)" stroke="rgb(0,0,255)" fill-opacity="1.0" stroke-opacity="1.0" clip-path="url(#clipPath3_0_)" transform="translate(980,770)" >
<rect x="0" y="0" width="345" height="198" />
<text id="B8D6D57C-F472FA029162" x="74" y="13" fill="rgb(0,0,255)" font-weight="bold"  fill-opacity="1.0" font-size="10" stroke="none">
public.edge_agerangeendagefromage
</text>
<line x1="0" y1="17" x2="344" y2="17" fill="none" stroke="rgb(0,0,255)"/>
<text x="16" y="30" fill="rgb(255,0,0)" fill-opacity="1.0" font-size="10" stroke="none">
*
</text>
<text x="26" y="30" fill="rgb(0,0,0)" fill-opacity="1.0" font-size="10" stroke="none">
created
</text>
<text x="83" y="30" fill="rgb(0,128,0)" fill-opacity="1.0" font-size="10" stroke="none">
TIMESTAMP WITH TIME ZONE
</text>
<text x="16" y="43" fill="rgb(255,0,0)" fill-opacity="1.0" font-size="10" stroke="none">

</text>
<text x="26" y="43" fill="rgb(0,0,0)" fill-opacity="1.0" font-size="10" stroke="none">
acl
</text>
<text x="83" y="43" fill="rgb(0,128,0)" fill-opacity="1.0" font-size="10" stroke="none">
UNKNOWN
</text>
<text x="16" y="56" fill="rgb(255,0,0)" fill-opacity="1.0" font-size="10" stroke="none">

</text>
<text x="26" y="56" fill="rgb(0,0,0)" fill-opacity="1.0" font-size="10" stroke="none">
_sysan
</text>
<text x="83" y="56" fill="rgb(0,128,0)" fill-opacity="1.0" font-size="10" stroke="none">
UNKNOWN
</text>
<text x="16" y="69" fill="rgb(255,0,0)" fill-opacity="1.0" font-size="10" stroke="none">

</text>
<text x="26" y="69" fill="rgb(0,0,0)" fill-opacity="1.0" font-size="10" stroke="none">
_props
</text>
<text x="83" y="69" fill="rgb(0,128,0)" fill-opacity="1.0" font-size="10" stroke="none">
UNKNOWN
</text>
<text x="16" y="82" fill="rgb(255,0,0)" fill-opacity="1.0" font-size="10" stroke="none">
*
</text>
<text x="2" y="82" fill="rgb(0,0,255)" fill-opacity="1.0" font-size="10" stroke="none">
PF
</text>
<text x="26" y="82" fill="rgb(0,0,0)" fill-opacity="1.0" font-size="10" stroke="none">
src_id
</text>
<text x="83" y="82" fill="rgb(0,128,0)" fill-opacity="1.0" font-size="10" stroke="none">
VARCHAR2 (2147483647)
</text>
<text x="16" y="95" fill="rgb(255,0,0)" fill-opacity="1.0" font-size="10" stroke="none">
*
</text>
<text x="2" y="95" fill="rgb(0,0,255)" fill-opacity="1.0" font-size="10" stroke="none">
PF
</text>
<text x="26" y="95" fill="rgb(0,0,0)" fill-opacity="1.0" font-size="10" stroke="none">
dst_id
</text>
<text x="83" y="95" fill="rgb(0,128,0)" fill-opacity="1.0" font-size="10" stroke="none">
VARCHAR2 (2147483647)
</text>
<line x1="0" y1="101" x2="344" y2="101" fill="none" stroke="rgb(0,0,255)"/>
<use xlink:href="#pk_sym" x="4" y="108" width="8" height="8" fill-opacity="1.0"/>
<text x="16" y="114" fill="rgb(0,0,0)" fill-opacity="1.0" font-size="10" stroke="none">
edge_agerangeendagefromage_pkey (src_id, dst_id)
</text>
<line x1="0" y1="120" x2="344" y2="120" fill="none" stroke="rgb(0,0,255)"/>
<use xlink:href="#fk_sym" x="4" y="127" width="8" height="8" fill-opacity="1.0"/><a xlink:href="#EC02AC5E-21AD188049BF" >
<text x="16" y="133" fill="rgb(0,0,0)" fill-opacity="1.0" font-size="10" stroke="none">
edge_agerangeendagefromage_dst_id_fkey (dst_id)
</text></a>
<use xlink:href="#fk_sym" x="4" y="140" width="8" height="8" fill-opacity="1.0"/><a xlink:href="#F0D23BD9-CD1495ACE15A" >
<text x="16" y="146" fill="rgb(0,0,0)" fill-opacity="1.0" font-size="10" stroke="none">
edge_agerangeendagefromage_src_id_fkey (src_id)
</text></a>
<line x1="0" y1="152" x2="344" y2="152" fill="none" stroke="rgb(0,0,255)"/>
<text x="16" y="165" fill="rgb(0,0,0)" fill-opacity="1.0" font-size="10" stroke="none">
edge_agerangeendagefromage_dst_id (dst_id)
</text>
<text x="16" y="178" fill="rgb(0,0,0)" fill-opacity="1.0" font-size="10" stroke="none">
edge_agerangeendagefromage_dst_id_src_id_idx (src_id, dst_id)
</text>
<text x="16" y="191" fill="rgb(0,0,0)" fill-opacity="1.0" font-size="10" stroke="none">
edge_agerangeendagefromage_src_id (src_id)
</text>
</g>
<g  fill="rgb(255,255,180)" stroke="rgb(0,0,255)" fill-opacity="1.0" stroke-opacity="1.0" clip-path="url(#clipPath4_0_)" transform="translate(600,770)" >
<rect x="0" y="0" width="350" height="198" />
<text id="E4A600EB-C01FFAF19B45" x="74" y="13" fill="rgb(0,0,255)" font-weight="bold"  fill-opacity="1.0" font-size="10" stroke="none">
public.edge_agerangestartagefromage
</text>
<line x1="0" y1="17" x2="349" y2="17" fill="none" stroke="rgb(0,0,255)"/>
<text x="16" y="30" fill="rgb(255,0,0)" fill-opacity="1.0" font-size="10" stroke="none">
*
</text>
<text x="26" y="30" fill="rgb(0,0,0)" fill-opacity="1.0" font-size="10" stroke="none">
created
</text>
<text x="83" y="30" fill="rgb(0,128,0)" fill-opacity="1.0" font-size="10" stroke="none">
TIMESTAMP WITH TIME ZONE
</text>
<text x="16" y="43" fill="rgb(255,0,0)" fill-opacity="1.0" font-size="10" stroke="none">

</text>
<text x="26" y="43" fill="rgb(0,0,0)" fill-opacity="1.0" font-size="10" stroke="none">
acl
</text>
<text x="83" y="43" fill="rgb(0,128,0)" fill-opacity="1.0" font-size="10" stroke="none">
UNKNOWN
</text>
<text x="16" y="56" fill="rgb(255,0,0)" fill-opacity="1.0" font-size="10" stroke="none">

</text>
<text x="26" y="56" fill="rgb(0,0,0)" fill-opacity="1.0" font-size="10" stroke="none">
_sysan
</text>
<text x="83" y="56" fill="rgb(0,128,0)" fill-opacity="1.0" font-size="10" stroke="none">
UNKNOWN
</text>
<text x="16" y="69" fill="rgb(255,0,0)" fill-opacity="1.0" font-size="10" stroke="none">

</text>
<text x="26" y="69" fill="rgb(0,0,0)" fill-opacity="1.0" font-size="10" stroke="none">
_props
</text>
<text x="83" y="69" fill="rgb(0,128,0)" fill-opacity="1.0" font-size="10" stroke="none">
UNKNOWN
</text>
<text x="16" y="82" fill="rgb(255,0,0)" fill-opacity="1.0" font-size="10" stroke="none">
*
</text>
<text x="2" y="82" fill="rgb(0,0,255)" fill-opacity="1.0" font-size="10" stroke="none">
PF
</text>
<text x="26" y="82" fill="rgb(0,0,0)" fill-opacity="1.0" font-size="10" stroke="none">
src_id
</text>
<text x="83" y="82" fill="rgb(0,128,0)" fill-opacity="1.0" font-size="10" stroke="none">
VARCHAR2 (2147483647)
</text>
<text x="16" y="95" fill="rgb(255,0,0)" fill-opacity="1.0" font-size="10" stroke="none">
*
</text>
<text x="2" y="95" fill="rgb(0,0,255)" fill-opacity="1.0" font-size="10" stroke="none">
PF
</text>
<text x="26" y="95" fill="rgb(0,0,0)" fill-opacity="1.0" font-size="10" stroke="none">
dst_id
</text>
<text x="83" y="95" fill="rgb(0,128,0)" fill-opacity="1.0" font-size="10" stroke="none">
VARCHAR2 (2147483647)
</text>
<line x1="0" y1="101" x2="349" y2="101" fill="none" stroke="rgb(0,0,255)"/>
<use xlink:href="#pk_sym" x="4" y="108" width="8" height="8" fill-opacity="1.0"/>
<text x="16" y="114" fill="rgb(0,0,0)" fill-opacity="1.0" font-size="10" stroke="none">
edge_agerangestartagefromage_pkey (src_id, dst_id)
</text>
<line x1="0" y1="120" x2="349" y2="120" fill="none" stroke="rgb(0,0,255)"/>
<use xlink:href="#fk_sym" x="4" y="127" width="8" height="8" fill-opacity="1.0"/><a xlink:href="#EC02AC5E-21AD188049BF" >
<text x="16" y="133" fill="rgb(0,0,0)" fill-opacity="1.0" font-size="10" stroke="none">
edge_agerangestartagefromage_dst_id_fkey (dst_id)
</text></a>
<use xlink:href="#fk_sym" x="4" y="140" width="8" height="8" fill-opacity="1.0"/><a xlink:href="#F0D23BD9-CD1495ACE15A" >
<text x="16" y="146" fill="rgb(0,0,0)" fill-opacity="1.0" font-size="10" stroke="none">
edge_agerangestartagefromage_src_id_fkey (src_id)
</text></a>
<line x1="0" y1="152" x2="349" y2="152" fill="none" stroke="rgb(0,0,255)"/>
<text x="16" y="165" fill="rgb(0,0,0)" fill-opacity="1.0" font-size="10" stroke="none">
edge_agerangestartagefromage_dst_id (dst_id)
</text>
<text x="16" y="178" fill="rgb(0,0,0)" fill-opacity="1.0" font-size="10" stroke="none">
edge_agerangestartagefromage_dst_id_src_id_idx (src_id, dst_id)
</text>
<text x="16" y="191" fill="rgb(0,0,0)" fill-opacity="1.0" font-size="10" stroke="none">
edge_agerangestartagefromage_src_id (src_id)
</text>
</g>
<g  fill="rgb(255,255,180)" stroke="rgb(0,0,255)" fill-opacity="1.0" stroke-opacity="1.0" clip-path="url(#clipPath2_0_)" transform="translate(260,130)" >
<rect x="0" y="0" width="361" height="198" />
<text id="7A8378BE-23B0B0755B87" x="74" y="13" fill="rgb(0,0,255)" font-weight="bold"  fill-opacity="1.0" font-size="10" stroke="none">
public.edge_agedatafrombeaconcommon
</text>
<line x1="0" y1="17" x2="360" y2="17" fill="none" stroke="rgb(0,0,255)"/>
<text x="16" y="30" fill="rgb(255,0,0)" fill-opacity="1.0" font-size="10" stroke="none">
*
</text>
<text x="26" y="30" fill="rgb(0,0,0)" fill-opacity="1.0" font-size="10" stroke="none">
created
</text>
<text x="83" y="30" fill="rgb(0,128,0)" fill-opacity="1.0" font-size="10" stroke="none">
TIMESTAMP WITH TIME ZONE
</text>
<text x="16" y="43" fill="rgb(255,0,0)" fill-opacity="1.0" font-size="10" stroke="none">

</text>
<text x="26" y="43" fill="rgb(0,0,0)" fill-opacity="1.0" font-size="10" stroke="none">
acl
</text>
<text x="83" y="43" fill="rgb(0,128,0)" fill-opacity="1.0" font-size="10" stroke="none">
UNKNOWN
</text>
<text x="16" y="56" fill="rgb(255,0,0)" fill-opacity="1.0" font-size="10" stroke="none">

</text>
<text x="26" y="56" fill="rgb(0,0,0)" fill-opacity="1.0" font-size="10" stroke="none">
_sysan
</text>
<text x="83" y="56" fill="rgb(0,128,0)" fill-opacity="1.0" font-size="10" stroke="none">
UNKNOWN
</text>
<text x="16" y="69" fill="rgb(255,0,0)" fill-opacity="1.0" font-size="10" stroke="none">

</text>
<text x="26" y="69" fill="rgb(0,0,0)" fill-opacity="1.0" font-size="10" stroke="none">
_props
</text>
<text x="83" y="69" fill="rgb(0,128,0)" fill-opacity="1.0" font-size="10" stroke="none">
UNKNOWN
</text>
<text x="16" y="82" fill="rgb(255,0,0)" fill-opacity="1.0" font-size="10" stroke="none">
*
</text>
<text x="2" y="82" fill="rgb(0,0,255)" fill-opacity="1.0" font-size="10" stroke="none">
PF
</text>
<text x="26" y="82" fill="rgb(0,0,0)" fill-opacity="1.0" font-size="10" stroke="none">
src_id
</text>
<text x="83" y="82" fill="rgb(0,128,0)" fill-opacity="1.0" font-size="10" stroke="none">
VARCHAR2 (2147483647)
</text>
<text x="16" y="95" fill="rgb(255,0,0)" fill-opacity="1.0" font-size="10" stroke="none">
*
</text>
<text x="2" y="95" fill="rgb(0,0,255)" fill-opacity="1.0" font-size="10" stroke="none">
PF
</text>
<text x="26" y="95" fill="rgb(0,0,0)" fill-opacity="1.0" font-size="10" stroke="none">
dst_id
</text>
<text x="83" y="95" fill="rgb(0,128,0)" fill-opacity="1.0" font-size="10" stroke="none">
VARCHAR2 (2147483647)
</text>
<line x1="0" y1="101" x2="360" y2="101" fill="none" stroke="rgb(0,0,255)"/>
<use xlink:href="#pk_sym" x="4" y="108" width="8" height="8" fill-opacity="1.0"/>
<text x="16" y="114" fill="rgb(0,0,0)" fill-opacity="1.0" font-size="10" stroke="none">
edge_agedatafrombeaconcommon_pkey (src_id, dst_id)
</text>
<line x1="0" y1="120" x2="360" y2="120" fill="none" stroke="rgb(0,0,255)"/>
<use xlink:href="#fk_sym" x="4" y="127" width="8" height="8" fill-opacity="1.0"/><a xlink:href="#EC02AC5E-21AD188049BF" >
<text x="16" y="133" fill="rgb(0,0,0)" fill-opacity="1.0" font-size="10" stroke="none">
edge_agedatafrombeaconcommon_src_id_fkey (src_id)
</text></a>
<use xlink:href="#fk_sym" x="4" y="140" width="8" height="8" fill-opacity="1.0"/><a xlink:href="#96115EBE-05C22978594C" >
<text x="16" y="146" fill="rgb(0,0,0)" fill-opacity="1.0" font-size="10" stroke="none">
edge_agedatafrombeaconcommon_dst_id_fkey (dst_id)
</text></a>
<line x1="0" y1="152" x2="360" y2="152" fill="none" stroke="rgb(0,0,255)"/>
<text x="16" y="165" fill="rgb(0,0,0)" fill-opacity="1.0" font-size="10" stroke="none">
edge_agedatafrombeaconcommon_dst_id (dst_id)
</text>
<text x="16" y="178" fill="rgb(0,0,0)" fill-opacity="1.0" font-size="10" stroke="none">
edge_agedatafrombeaconcommon_dst_id_src_id_idx (src_id, dst_id)
</text>
<text x="16" y="191" fill="rgb(0,0,0)" fill-opacity="1.0" font-size="10" stroke="none">
edge_agedatafrombeaconcommon_src_id (src_id)
</text>
</g>
<g  fill="rgb(192,192,192)" stroke="rgb(0,0,0)" fill-opacity="1.0" stroke-opacity="1.0" clip-path="url(#clipPath14_0_)" transform="translate(260,80)" >
<path stroke="rgb(0,0,0)" stroke-width="1" d="M106 0 L121 6 L121 40 L0 40 L0 0 L106 0 L106 6 L121 6" />
<text x="2" y="13" fill="rgb(0,0,0)" fill-opacity="1.0" font-size="10" stroke="none">
Edge for 
</text>
<text x="2" y="26" fill="rgb(0,0,0)" fill-opacity="1.0" font-size="10" stroke="none">
BeaconCommon to Age
</text>
</g>
<g  fill="rgb(192,192,192)" stroke="rgb(0,0,0)" fill-opacity="1.0" stroke-opacity="1.0" clip-path="url(#clipPath15_0_)" transform="translate(560,720)" >
<path stroke="rgb(0,0,0)" stroke-width="1" d="M106 0 L121 6 L121 41 L0 41 L0 0 L106 0 L106 6 L121 6" />
<text x="2" y="13" fill="rgb(0,0,0)" fill-opacity="1.0" font-size="10" stroke="none">
Edge for AgeRange.
</text>
<text x="2" y="26" fill="rgb(0,0,0)" fill-opacity="1.0" font-size="10" stroke="none">
start to Age
</text>
</g>
<g  fill="rgb(192,192,192)" stroke="rgb(0,0,0)" fill-opacity="1.0" stroke-opacity="1.0" clip-path="url(#clipPath16_0_)" transform="translate(1210,720)" >
<path stroke="rgb(0,0,0)" stroke-width="1" d="M98 0 L111 6 L111 41 L0 41 L0 0 L98 0 L98 6 L111 6" />
<text x="2" y="13" fill="rgb(0,0,0)" fill-opacity="1.0" font-size="10" stroke="none">
Edge for AgeRange.
</text>
<text x="2" y="26" fill="rgb(0,0,0)" fill-opacity="1.0" font-size="10" stroke="none">
end to Age
</text>
</g>

</svg>